<svg xmlns="http://www.w3.org/2000/svg" viewBox="0 0 320 240" fill="none" role="img" aria-label="BeagleBone Black schematic illustration">
  <style>
    .bd{fill:rgba(255,255,255,.045);stroke:#f2f2f2;stroke-width:1.7}
    .cp{fill:rgba(255,255,255,.10);stroke:#f2f2f2;stroke-width:1.1}
    .cn{fill:rgba(255,255,255,.06);stroke:#f2f2f2;stroke-width:1.3}
    .pd{fill:rgba(255,255,255,.55)}
    .ln{fill:none;stroke:#f2f2f2;stroke-width:1;opacity:.5}
    .hl{fill:rgba(255,138,61,.16);stroke:#ff8a3d;stroke-width:1.8}
    .hs{fill:none;stroke:#ff8a3d;stroke-width:1.4}
    .hp{fill:#ff8a3d}
    .tx{fill:#f2f2f2;font-family:ui-monospace,'SF Mono',Menlo,Consolas,monospace;
        font-size:8.5px;letter-spacing:.06em;opacity:.72}
    .ta{fill:#ff8a3d;font-family:ui-monospace,'SF Mono',Menlo,Consolas,monospace;
        font-size:8.5px;letter-spacing:.06em}
    .hole{fill:none;stroke:#f2f2f2;stroke-width:1.2;opacity:.6}
  </style>
<rect class="bd" x="24" y="40" width="262" height="160" rx="7"/>
<circle class="hole" cx="35" cy="51" r="3.4"/><circle class="hole" cx="275" cy="51" r="3.4"/><circle class="hole" cx="35" cy="189" r="3.4"/><circle class="hole" cx="275" cy="189" r="3.4"/>
<rect class="cn" x="46" y="46" width="196" height="18" rx="2"/>
<rect class="pd" x="50.0" y="49.5" width="3.6" height="3.6" rx=".7"/><rect class="pd" x="58.4" y="49.5" width="3.6" height="3.6" rx=".7"/><rect class="pd" x="66.8" y="49.5" width="3.6" height="3.6" rx=".7"/><rect class="pd" x="75.2" y="49.5" width="3.6" height="3.6" rx=".7"/><rect class="pd" x="83.6" y="49.5" width="3.6" height="3.6" rx=".7"/><rect class="pd" x="92.0" y="49.5" width="3.6" height="3.6" rx=".7"/><rect class="pd" x="100.4" y="49.5" width="3.6" height="3.6" rx=".7"/><rect class="pd" x="108.8" y="49.5" width="3.6" height="3.6" rx=".7"/><rect class="pd" x="117.2" y="49.5" width="3.6" height="3.6" rx=".7"/><rect class="pd" x="125.6" y="49.5" width="3.6" height="3.6" rx=".7"/><rect class="pd" x="134.0" y="49.5" width="3.6" height="3.6" rx=".7"/><rect class="pd" x="142.4" y="49.5" width="3.6" height="3.6" rx=".7"/><rect class="pd" x="150.8" y="49.5" width="3.6" height="3.6" rx=".7"/><rect class="pd" x="159.2" y="49.5" width="3.6" height="3.6" rx=".7"/><rect class="pd" x="167.6" y="49.5" width="3.6" height="3.6" rx=".7"/><rect class="pd" x="176.0" y="49.5" width="3.6" height="3.6" rx=".7"/><rect class="pd" x="184.4" y="49.5" width="3.6" height="3.6" rx=".7"/><rect class="pd" x="192.8" y="49.5" width="3.6" height="3.6" rx=".7"/><rect class="pd" x="201.2" y="49.5" width="3.6" height="3.6" rx=".7"/><rect class="pd" x="209.6" y="49.5" width="3.6" height="3.6" rx=".7"/><rect class="pd" x="218.0" y="49.5" width="3.6" height="3.6" rx=".7"/><rect class="pd" x="226.4" y="49.5" width="3.6" height="3.6" rx=".7"/><rect class="pd" x="234.8" y="49.5" width="3.6" height="3.6" rx=".7"/><rect class="pd" x="50.0" y="57.9" width="3.6" height="3.6" rx=".7"/><rect class="pd" x="58.4" y="57.9" width="3.6" height="3.6" rx=".7"/><rect class="pd" x="66.8" y="57.9" width="3.6" height="3.6" rx=".7"/><rect class="pd" x="75.2" y="57.9" width="3.6" height="3.6" rx=".7"/><rect class="pd" x="83.6" y="57.9" width="3.6" height="3.6" rx=".7"/><rect class="pd" x="92.0" y="57.9" width="3.6" height="3.6" rx=".7"/><rect class="pd" x="100.4" y="57.9" width="3.6" height="3.6" rx=".7"/><rect class="pd" x="108.8" y="57.9" width="3.6" height="3.6" rx=".7"/><rect class="pd" x="117.2" y="57.9" width="3.6" height="3.6" rx=".7"/><rect class="pd" x="125.6" y="57.9" width="3.6" height="3.6" rx=".7"/><rect class="pd" x="134.0" y="57.9" width="3.6" height="3.6" rx=".7"/><rect class="pd" x="142.4" y="57.9" width="3.6" height="3.6" rx=".7"/><rect class="pd" x="150.8" y="57.9" width="3.6" height="3.6" rx=".7"/><rect class="pd" x="159.2" y="57.9" width="3.6" height="3.6" rx=".7"/><rect class="pd" x="167.6" y="57.9" width="3.6" height="3.6" rx=".7"/><rect class="pd" x="176.0" y="57.9" width="3.6" height="3.6" rx=".7"/><rect class="pd" x="184.4" y="57.9" width="3.6" height="3.6" rx=".7"/><rect class="pd" x="192.8" y="57.9" width="3.6" height="3.6" rx=".7"/><rect class="pd" x="201.2" y="57.9" width="3.6" height="3.6" rx=".7"/><rect class="pd" x="209.6" y="57.9" width="3.6" height="3.6" rx=".7"/><rect class="pd" x="218.0" y="57.9" width="3.6" height="3.6" rx=".7"/><rect class="pd" x="226.4" y="57.9" width="3.6" height="3.6" rx=".7"/><rect class="pd" x="234.8" y="57.9" width="3.6" height="3.6" rx=".7"/>
<rect class="cn" x="46" y="176" width="196" height="18" rx="2"/>
<rect class="pd" x="50.0" y="179.5" width="3.6" height="3.6" rx=".7"/><rect class="pd" x="58.4" y="179.5" width="3.6" height="3.6" rx=".7"/><rect class="pd" x="66.8" y="179.5" width="3.6" height="3.6" rx=".7"/><rect class="pd" x="75.2" y="179.5" width="3.6" height="3.6" rx=".7"/><rect class="pd" x="83.6" y="179.5" width="3.6" height="3.6" rx=".7"/><rect class="pd" x="92.0" y="179.5" width="3.6" height="3.6" rx=".7"/><rect class="pd" x="100.4" y="179.5" width="3.6" height="3.6" rx=".7"/><rect class="pd" x="108.8" y="179.5" width="3.6" height="3.6" rx=".7"/><rect class="pd" x="117.2" y="179.5" width="3.6" height="3.6" rx=".7"/><rect class="pd" x="125.6" y="179.5" width="3.6" height="3.6" rx=".7"/><rect class="pd" x="134.0" y="179.5" width="3.6" height="3.6" rx=".7"/><rect class="pd" x="142.4" y="179.5" width="3.6" height="3.6" rx=".7"/><rect class="pd" x="150.8" y="179.5" width="3.6" height="3.6" rx=".7"/><rect class="pd" x="159.2" y="179.5" width="3.6" height="3.6" rx=".7"/><rect class="pd" x="167.6" y="179.5" width="3.6" height="3.6" rx=".7"/><rect class="pd" x="176.0" y="179.5" width="3.6" height="3.6" rx=".7"/><rect class="pd" x="184.4" y="179.5" width="3.6" height="3.6" rx=".7"/><rect class="pd" x="192.8" y="179.5" width="3.6" height="3.6" rx=".7"/><rect class="pd" x="201.2" y="179.5" width="3.6" height="3.6" rx=".7"/><rect class="pd" x="209.6" y="179.5" width="3.6" height="3.6" rx=".7"/><rect class="pd" x="218.0" y="179.5" width="3.6" height="3.6" rx=".7"/><rect class="pd" x="226.4" y="179.5" width="3.6" height="3.6" rx=".7"/><rect class="pd" x="234.8" y="179.5" width="3.6" height="3.6" rx=".7"/><rect class="pd" x="50.0" y="187.9" width="3.6" height="3.6" rx=".7"/><rect class="pd" x="58.4" y="187.9" width="3.6" height="3.6" rx=".7"/><rect class="pd" x="66.8" y="187.9" width="3.6" height="3.6" rx=".7"/><rect class="pd" x="75.2" y="187.9" width="3.6" height="3.6" rx=".7"/><rect class="pd" x="83.6" y="187.9" width="3.6" height="3.6" rx=".7"/><rect class="pd" x="92.0" y="187.9" width="3.6" height="3.6" rx=".7"/><rect class="pd" x="100.4" y="187.9" width="3.6" height="3.6" rx=".7"/><rect class="pd" x="108.8" y="187.9" width="3.6" height="3.6" rx=".7"/><rect class="pd" x="117.2" y="187.9" width="3.6" height="3.6" rx=".7"/><rect class="pd" x="125.6" y="187.9" width="3.6" height="3.6" rx=".7"/><rect class="pd" x="134.0" y="187.9" width="3.6" height="3.6" rx=".7"/><rect class="pd" x="142.4" y="187.9" width="3.6" height="3.6" rx=".7"/><rect class="pd" x="150.8" y="187.9" width="3.6" height="3.6" rx=".7"/><rect class="pd" x="159.2" y="187.9" width="3.6" height="3.6" rx=".7"/><rect class="pd" x="167.6" y="187.9" width="3.6" height="3.6" rx=".7"/><rect class="pd" x="176.0" y="187.9" width="3.6" height="3.6" rx=".7"/><rect class="pd" x="184.4" y="187.9" width="3.6" height="3.6" rx=".7"/><rect class="pd" x="192.8" y="187.9" width="3.6" height="3.6" rx=".7"/><rect class="pd" x="201.2" y="187.9" width="3.6" height="3.6" rx=".7"/><rect class="pd" x="209.6" y="187.9" width="3.6" height="3.6" rx=".7"/><rect class="pd" x="218.0" y="187.9" width="3.6" height="3.6" rx=".7"/><rect class="pd" x="226.4" y="187.9" width="3.6" height="3.6" rx=".7"/><rect class="pd" x="234.8" y="187.9" width="3.6" height="3.6" rx=".7"/>
<text class="tx" x="144" y="84" text-anchor="middle">P8 / P9 HEADERS</text>
<rect class="hl" x="102" y="98" width="60" height="56" rx="2"/>
<text class="ta" x="132" y="122" text-anchor="middle">AM335x</text>
<text class="tx" x="132" y="136" text-anchor="middle">Cortex-A8</text>
<rect class="cp" x="172" y="106" width="30" height="24" rx="2"/>
<text class="tx" x="187" y="121" text-anchor="middle">eMMC</text>
<rect class="cp" x="172" y="138" width="30" height="18" rx="2"/>
<text class="tx" x="187" y="150" text-anchor="middle">PMIC</text>
<rect class="cn" x="266" y="70" width="44" height="42" rx="2"/>
<text class="tx" x="288" y="95" text-anchor="middle">RJ45</text>
<rect class="cn" x="266" y="126" width="40" height="30" rx="2"/>
<text class="tx" x="286" y="145" text-anchor="middle">USB</text>
<rect class="cn" x="10" y="118" width="22" height="16" rx="2"/>
<text class="tx" x="28" y="146" text-anchor="middle">µSD</text>
<path class="ln" d="M62 100 h36 M62 110 h24 M216 104 v48 M226 104 v34"/>
</svg>
