<svg xmlns="http://www.w3.org/2000/svg" viewBox="0 0 320 240" fill="none" role="img" aria-label="NVIDIA Jetson Nano schematic illustration">
  <style>
    .bd{fill:rgba(255,255,255,.045);stroke:#f2f2f2;stroke-width:1.7}
    .cp{fill:rgba(255,255,255,.10);stroke:#f2f2f2;stroke-width:1.1}
    .cn{fill:rgba(255,255,255,.06);stroke:#f2f2f2;stroke-width:1.3}
    .pd{fill:rgba(255,255,255,.55)}
    .ln{fill:none;stroke:#f2f2f2;stroke-width:1;opacity:.5}
    .hl{fill:rgba(157,92,255,.16);stroke:#9d5cff;stroke-width:1.8}
    .hs{fill:none;stroke:#9d5cff;stroke-width:1.4}
    .hp{fill:#9d5cff}
    .tx{fill:#f2f2f2;font-family:ui-monospace,'SF Mono',Menlo,Consolas,monospace;
        font-size:8.5px;letter-spacing:.06em;opacity:.72}
    .ta{fill:#9d5cff;font-family:ui-monospace,'SF Mono',Menlo,Consolas,monospace;
        font-size:8.5px;letter-spacing:.06em}
    .hole{fill:none;stroke:#f2f2f2;stroke-width:1.2;opacity:.6}
  </style>
<rect class="bd" x="20" y="40" width="280" height="162" rx="7"/>
<circle class="hole" cx="31" cy="51" r="3.4"/><circle class="hole" cx="289" cy="51" r="3.4"/><circle class="hole" cx="31" cy="191" r="3.4"/><circle class="hole" cx="289" cy="191" r="3.4"/>
<rect class="cn" x="46" y="46" width="150" height="19" rx="2"/>
<rect class="pd" x="50.0" y="50.0" width="3.8" height="3.8" rx=".7"/><rect class="pd" x="58.6" y="50.0" width="3.8" height="3.8" rx=".7"/><rect class="pd" x="67.2" y="50.0" width="3.8" height="3.8" rx=".7"/><rect class="pd" x="75.8" y="50.0" width="3.8" height="3.8" rx=".7"/><rect class="pd" x="84.4" y="50.0" width="3.8" height="3.8" rx=".7"/><rect class="pd" x="93.0" y="50.0" width="3.8" height="3.8" rx=".7"/><rect class="pd" x="101.6" y="50.0" width="3.8" height="3.8" rx=".7"/><rect class="pd" x="110.2" y="50.0" width="3.8" height="3.8" rx=".7"/><rect class="pd" x="118.8" y="50.0" width="3.8" height="3.8" rx=".7"/><rect class="pd" x="127.4" y="50.0" width="3.8" height="3.8" rx=".7"/><rect class="pd" x="136.0" y="50.0" width="3.8" height="3.8" rx=".7"/><rect class="pd" x="144.6" y="50.0" width="3.8" height="3.8" rx=".7"/><rect class="pd" x="153.2" y="50.0" width="3.8" height="3.8" rx=".7"/><rect class="pd" x="161.8" y="50.0" width="3.8" height="3.8" rx=".7"/><rect class="pd" x="170.4" y="50.0" width="3.8" height="3.8" rx=".7"/><rect class="pd" x="179.0" y="50.0" width="3.8" height="3.8" rx=".7"/><rect class="pd" x="187.6" y="50.0" width="3.8" height="3.8" rx=".7"/><rect class="pd" x="50.0" y="58.6" width="3.8" height="3.8" rx=".7"/><rect class="pd" x="58.6" y="58.6" width="3.8" height="3.8" rx=".7"/><rect class="pd" x="67.2" y="58.6" width="3.8" height="3.8" rx=".7"/><rect class="pd" x="75.8" y="58.6" width="3.8" height="3.8" rx=".7"/><rect class="pd" x="84.4" y="58.6" width="3.8" height="3.8" rx=".7"/><rect class="pd" x="93.0" y="58.6" width="3.8" height="3.8" rx=".7"/><rect class="pd" x="101.6" y="58.6" width="3.8" height="3.8" rx=".7"/><rect class="pd" x="110.2" y="58.6" width="3.8" height="3.8" rx=".7"/><rect class="pd" x="118.8" y="58.6" width="3.8" height="3.8" rx=".7"/><rect class="pd" x="127.4" y="58.6" width="3.8" height="3.8" rx=".7"/><rect class="pd" x="136.0" y="58.6" width="3.8" height="3.8" rx=".7"/><rect class="pd" x="144.6" y="58.6" width="3.8" height="3.8" rx=".7"/><rect class="pd" x="153.2" y="58.6" width="3.8" height="3.8" rx=".7"/><rect class="pd" x="161.8" y="58.6" width="3.8" height="3.8" rx=".7"/><rect class="pd" x="170.4" y="58.6" width="3.8" height="3.8" rx=".7"/><rect class="pd" x="179.0" y="58.6" width="3.8" height="3.8" rx=".7"/><rect class="pd" x="187.6" y="58.6" width="3.8" height="3.8" rx=".7"/>
<rect class="hl" x="82" y="82" width="140" height="86" rx="3"/>
<rect class="hs" x="92" y="92" width="8" height="8" rx="1" opacity=".55"/><rect class="hs" x="106" y="92" width="8" height="8" rx="1" opacity=".55"/><rect class="hs" x="120" y="92" width="8" height="8" rx="1" opacity=".55"/><rect class="hs" x="134" y="92" width="8" height="8" rx="1" opacity=".55"/><rect class="hs" x="148" y="92" width="8" height="8" rx="1" opacity=".55"/><rect class="hs" x="162" y="92" width="8" height="8" rx="1" opacity=".55"/><rect class="hs" x="176" y="92" width="8" height="8" rx="1" opacity=".55"/><rect class="hs" x="190" y="92" width="8" height="8" rx="1" opacity=".55"/><rect class="hs" x="204" y="92" width="8" height="8" rx="1" opacity=".55"/><rect class="hs" x="92" y="106" width="8" height="8" rx="1" opacity=".55"/><rect class="hs" x="106" y="106" width="8" height="8" rx="1" opacity=".55"/><rect class="hs" x="120" y="106" width="8" height="8" rx="1" opacity=".55"/><rect class="hs" x="134" y="106" width="8" height="8" rx="1" opacity=".55"/><rect class="hs" x="148" y="106" width="8" height="8" rx="1" opacity=".55"/><rect class="hs" x="162" y="106" width="8" height="8" rx="1" opacity=".55"/><rect class="hs" x="176" y="106" width="8" height="8" rx="1" opacity=".55"/><rect class="hs" x="190" y="106" width="8" height="8" rx="1" opacity=".55"/><rect class="hs" x="204" y="106" width="8" height="8" rx="1" opacity=".55"/><rect class="hs" x="92" y="120" width="8" height="8" rx="1" opacity=".55"/><rect class="hs" x="106" y="120" width="8" height="8" rx="1" opacity=".55"/><rect class="hs" x="120" y="120" width="8" height="8" rx="1" opacity=".55"/><rect class="hs" x="134" y="120" width="8" height="8" rx="1" opacity=".55"/><rect class="hs" x="148" y="120" width="8" height="8" rx="1" opacity=".55"/><rect class="hs" x="162" y="120" width="8" height="8" rx="1" opacity=".55"/><rect class="hs" x="176" y="120" width="8" height="8" rx="1" opacity=".55"/><rect class="hs" x="190" y="120" width="8" height="8" rx="1" opacity=".55"/><rect class="hs" x="204" y="120" width="8" height="8" rx="1" opacity=".55"/><rect class="hs" x="92" y="134" width="8" height="8" rx="1" opacity=".55"/><rect class="hs" x="106" y="134" width="8" height="8" rx="1" opacity=".55"/><rect class="hs" x="120" y="134" width="8" height="8" rx="1" opacity=".55"/><rect class="hs" x="134" y="134" width="8" height="8" rx="1" opacity=".55"/><rect class="hs" x="148" y="134" width="8" height="8" rx="1" opacity=".55"/><rect class="hs" x="162" y="134" width="8" height="8" rx="1" opacity=".55"/><rect class="hs" x="176" y="134" width="8" height="8" rx="1" opacity=".55"/><rect class="hs" x="190" y="134" width="8" height="8" rx="1" opacity=".55"/><rect class="hs" x="204" y="134" width="8" height="8" rx="1" opacity=".55"/><rect class="hs" x="92" y="148" width="8" height="8" rx="1" opacity=".55"/><rect class="hs" x="106" y="148" width="8" height="8" rx="1" opacity=".55"/><rect class="hs" x="120" y="148" width="8" height="8" rx="1" opacity=".55"/><rect class="hs" x="134" y="148" width="8" height="8" rx="1" opacity=".55"/><rect class="hs" x="148" y="148" width="8" height="8" rx="1" opacity=".55"/><rect class="hs" x="162" y="148" width="8" height="8" rx="1" opacity=".55"/><rect class="hs" x="176" y="148" width="8" height="8" rx="1" opacity=".55"/><rect class="hs" x="190" y="148" width="8" height="8" rx="1" opacity=".55"/><rect class="hs" x="204" y="148" width="8" height="8" rx="1" opacity=".55"/>
<text class="ta" x="152" y="182" text-anchor="middle">TEGRA X1 · 128-CORE MAXWELL</text>
<rect class="cn" x="282" y="66" width="34" height="36" rx="2"/><text class="tx" x="299" y="88" text-anchor="middle">USB</text>
<rect class="cn" x="282" y="112" width="34" height="34" rx="2"/><text class="tx" x="299" y="133" text-anchor="middle">ETH</text>
<rect class="cn" x="282" y="156" width="26" height="20" rx="2"/>
<circle class="cn" cx="34" cy="120" r="11"/><text class="tx" x="34" y="146" text-anchor="middle">PWR</text>
<path class="ln" d="M236 84 h40 M236 96 h28 M236 150 v-40"/>
<text class="tx" x="240" y="214" text-anchor="middle">CUDA · L4T</text>
</svg>
